<svg width="32" height="32" xmlns="http://www.w3.org/2000/svg">
 <title>29 -Coding- (development, coding, code, programming)</title>

 <desc>Created with Sketch.</desc>
 <g>
  <title>background</title>
  <rect fill="none" id="canvas_background" height="34" width="34" y="-1" x="-1"/>
 </g>
 <g>
  <title>Layer 1</title>
  <g id="svg_1" fill-rule="evenodd" fill="none">
   <g stroke="null" id="svg_2" fill="#000000">
    <g stroke="null" id="svg_3">
     <path stroke="null" id="svg_4" d="m26.00408,16.377074l-5.337067,5.336535c-0.104,0.104533 -0.240533,0.156267 -0.377067,0.156267c-0.136533,0 -0.273067,-0.051733 -0.377067,-0.156267c-0.208533,-0.208 -0.208533,-0.5456 0,-0.754134l4.9552,-4.954668l-4.96,-4.960001c-0.208,-0.208 -0.208,-0.5456 0,-0.754134c0.208533,-0.208 0.546133,-0.208 0.754133,0l5.300267,5.300268c0.066133,0.053867 0.118933,0.123733 0.152533,0.2048c0.082667,0.199467 0.0416,0.4288 -0.110933,0.581333m-7.893333,-5.557335l-3.2,10.666669c-0.069333,0.231467 -0.281067,0.380267 -0.510933,0.380267c-0.050667,0 -0.101867,-0.006933 -0.153067,-0.0224c-0.282133,-0.0848 -0.442133,-0.381867 -0.357867,-0.664l3.2,-10.666669c0.084267,-0.282133 0.3808,-0.443733 0.664,-0.357867c0.282667,0.0848 0.442133,0.381867 0.357867,0.664m-5.9984,10.889603c-0.104,0.104 -0.240533,0.156267 -0.377067,0.156267c-0.136533,0 -0.273067,-0.052267 -0.377067,-0.156267l-5.299733,-5.300268c-0.066133,-0.053867 -0.118933,-0.123733 -0.153067,-0.2048c-0.082667,-0.199467 -0.0416,-0.4288 0.110933,-0.581333l5.337067,-5.336535c0.208533,-0.208533 0.546133,-0.208533 0.754133,0c0.208533,0.208 0.208533,0.5456 0,0.754134l-4.9552,4.954668l4.96,4.959468c0.208533,0.208533 0.208533,0.546133 0,0.754667m12.954133,-21.709339l-18.133333,0c-3.822933,0 -6.933333,3.110401 -6.933333,6.933335l0,18.133338c0,3.822934 3.1104,6.933335 6.933333,6.933335l18.133333,0c3.822933,0 6.933333,-3.110401 6.933333,-6.933335l0,-18.133338c0,-3.822934 -3.1104,-6.933335 -6.933333,-6.933335"/>
    </g>
   </g>
  </g>
 </g>
</svg>